<svg xmlns="http://www.w3.org/2000/svg" fill="currentColor" viewBox="0 0 14 14" width="16" height="16" role="img"><path d="M2.182 1.036a1.426 1.426 0 0 0-.776.443c-.168.18-.243.305-.321.537a1.462 1.462 0 0 0 1.033 1.882c.192.049.487.059.659.021.289-.063.61-.251.804-.471.126-.143.3-.488.337-.667a1.654 1.654 0 0 0-.021-.667 1.448 1.448 0 0 0-1.353-1.101 1.493 1.493 0 0 0-.362.023m7.431 3.758a2.902 2.902 0 0 0-1.109.434c-.21.137-.614.53-.742.722l-.085.128V4.993l-1.184.006-1.185.006-.006 3.996-.005 3.996h2.38v-2.249c0-2.436.001-2.457.128-2.81a1.27 1.27 0 0 1 .337-.543c.395-.397 1.114-.514 1.65-.268.297.136.549.486.665.924l.053.197.007 2.375.008 2.374h2.474l-.009-2.794c-.009-2.757-.009-2.798-.06-3.063-.245-1.29-.954-2.063-2.119-2.31-.302-.064-.915-.083-1.198-.036M1.237 8.995v4.002H3.71V4.993H1.237v4.002" fill-rule="evenodd"></path></svg>